<?xml version="1.0" encoding="iso-8859-1"?>
<!-- Generator: Adobe Illustrator 19.0.0, SVG Export Plug-In . SVG Version: 6.00 Build 0)  -->
<svg version="1.1" id="Capa_1" xmlns="http://www.w3.org/2000/svg" xmlns:xlink="http://www.w3.org/1999/xlink" x="0px" y="0px"
	 viewBox="0 0 512.002 512.002" style="enable-background:new 0 0 512.002 512.002;" xml:space="preserve">
<polygon style="fill:#EF6E4B;" points="197.329,388.478 165.506,365.771 389.604,239.881 246.403,504.403 164.149,504.403 
	165.424,437.096 "/>
<path style="fill:#FFF2E9;" d="M392.618,7.639V298.84l-58.344,13.656l-86.513,55.984h-27.865c-16.723,0-30.276-13.553-30.276-30.276
	v-26.7h37.306c13.907,0,25.171-11.274,25.171-25.171v-23.57H189.62v-27.136h-34.348l1.185-109.516
	c0.304-32.818,13.806-62.456,35.432-83.869c21.636-21.423,51.385-34.642,84.193-34.642c1.013,0,2.026,0.01,3.029,0.041
	L392.618,7.639L392.618,7.639z"/>
<polygon style="fill:#E2D0C5;" points="392.618,125.644 392.618,318.59 334.274,312.496 334.274,125.644 "/>
<path style="fill:#75706B;" d="M392.618,7.639v168.478l-6.635-9.957c-10.19-15.295-32.707-15.153-42.694,0.273l-5.824,8.995
	l-34.48,53.269c0,0,22.365-102.102-29.719-118.734c-59.873-19.114-90.078,34.186-90.078,34.186s-5.753-21.281-25.151-33.365h-0.456
	c3.667-26.67,16.105-50.524,34.307-68.544c21.636-21.423,51.385-34.642,84.204-34.642c1.013,0,2.016,0.01,3.029,0.041L392.618,7.639
	L392.618,7.639z"/>
<path style="fill:#605B58;" d="M392.618,7.639v168.478l-6.635-9.957c-10.19-15.295-32.707-15.153-42.694,0.273l-5.824,8.995
	C340.2,65.376,392.618,7.639,392.618,7.639z"/>
<polygon style="fill:#75706B;" points="279.583,388.478 247.76,365.771 471.857,239.881 370.932,428.709 246.403,504.403 
	247.678,437.096 "/>
<polygon style="fill:#605B58;" points="360.082,302.672 304.434,469.13 370.932,428.709 471.857,239.881 "/>
<path d="M477.172,234.453c-2.412-2.361-6.094-2.848-9.036-1.195l-224.097,125.89c-2.267,1.273-3.724,3.618-3.865,6.214
	c-0.14,2.596,1.056,5.084,3.173,6.593l25.876,18.463l-27.897,42.509c-0.785,1.197-1.217,2.592-1.244,4.024l-1.133,59.855h-67.057
	l1.087-57.376l30.703-46.784c2.239-3.411,1.383-7.982-1.939-10.352l-31.823-22.707c-3.417-2.437-8.16-1.644-10.596,1.772
	c-2.437,3.416-1.644,8.16,1.772,10.596l25.876,18.463l-27.897,42.509c-0.785,1.197-1.217,2.592-1.244,4.024l-1.275,67.308
	c-0.038,2.039,0.744,4.009,2.174,5.465c1.428,1.457,3.382,2.276,5.422,2.276h82.254c1.367,0,2.735-0.369,3.946-1.105l124.529-75.694
	c1.162-0.706,2.113-1.711,2.754-2.911l37.493-70.147c1.978-3.7,0.581-8.303-3.119-10.28c-3.699-1.979-8.303-0.581-10.281,3.119
	l-36.518,68.314l-110.952,67.441l0.971-51.306l30.703-46.784c2.239-3.411,1.383-7.982-1.939-10.352l-22.086-15.759L452.891,259.25
	l-36.183,67.698c-1.978,3.7-0.581,8.303,3.119,10.28c3.697,1.978,8.303,0.581,10.28-3.119l48.45-90.647
	C480.148,240.485,479.584,236.815,477.172,234.453z"/>
<path d="M212.207,202.444c4.195,0,7.597-3.401,7.597-7.597v-11.465l23.478-5.61c4.081-0.975,6.599-5.074,5.624-9.155
	c-0.975-4.081-5.079-6.598-9.155-5.624l-45.032,10.759c-4.081,0.975-6.599,5.074-5.624,9.155c0.834,3.487,3.947,5.833,7.383,5.833
	c0.584,0,1.179-0.068,1.772-0.21l6.36-1.519v7.836C204.61,199.043,208.01,202.444,212.207,202.444z"/>
<path d="M316.763,15.231h68.254v126.614c0,4.195,3.401,7.597,7.597,7.597c4.195,0,7.597-3.401,7.597-7.597V7.634
	c0-4.195-3.401-7.597-7.597-7.597h-75.851c-4.195,0-7.597,3.401-7.597,7.597S312.567,15.231,316.763,15.231z"/>
<path d="M197.216,235.63c0-4.195-3.401-7.597-7.597-7.597h-26.665l1.095-101.857c0.001-0.155,0.008-0.308,0.01-0.463
	c8.689,9.628,11.76,20.301,11.793,20.421c0.802,2.966,3.318,5.148,6.366,5.541c3.047,0.394,6.037-1.097,7.566-3.762
	c1.121-1.954,28.073-47.666,81.169-30.713c18.166,5.8,27.955,25.437,29.099,58.365c0.915,26.359-4.443,51.258-4.495,51.503
	c-0.786,3.588,1.107,7.224,4.496,8.637c3.389,1.414,7.305,0.201,9.302-2.883l40.307-62.259c3.344-5.166,8.791-8.151,14.945-8.191
	c6.161-0.045,11.64,2.874,15.052,7.995c3.506,5.263,5.358,11.387,5.358,17.711v24.161c0,10.695-7.223,17.482-13.408,20.044
	c-5.422,2.245-10.811,1.811-13.728-1.106c-2.966-2.967-7.776-2.967-10.743,0c-2.967,2.967-2.967,7.776,0,10.743
	c4.621,4.621,10.889,7.011,17.698,7.011c4.081,0,8.357-0.859,12.589-2.612c13.844-5.734,22.788-19.111,22.788-34.081v-24.161
	c0-9.331-2.734-18.368-7.908-26.134c-6.207-9.319-16.627-14.834-27.795-14.765c-11.197,0.074-21.514,5.729-27.6,15.128
	l-21.995,33.975c2.142-33.615-1.829-81.579-39.336-93.555c-33.961-10.844-59.135,0.006-74.272,11.016
	c-6.929,5.04-12.397,10.543-16.41,15.235c-3.813-6.914-9.866-15.313-19.024-22.043c4.076-22.391,14.873-42.973,31.357-59.299
	c21.135-20.921,49.142-32.443,78.857-32.443c0.95,0,1.897,0.012,2.84,0.035c0.063,0.002,0.126,0.002,0.188,0.002h12.324
	c4.195,0,7.597-3.401,7.597-7.597s-3.401-7.597-7.597-7.597h-12.231C278.17,0.012,277.13,0,276.086,0
	c-33.745,0-65.547,13.083-89.549,36.841c-23.98,23.75-37.361,55.426-37.681,89.182l-0.447,41.526l-19.088-4.559
	c-4.08-0.972-8.179,1.544-9.154,5.625c-0.974,4.081,1.544,8.179,5.625,9.154l22.45,5.361l-0.563,52.417
	c-0.021,2.029,0.769,3.982,2.196,5.424c1.427,1.442,3.372,2.254,5.401,2.254h34.343C193.814,243.227,197.216,239.826,197.216,235.63
	z"/>
<path d="M226.923,319.103c18.071,0,32.774-14.702,32.774-32.774v-23.565c0-4.195-3.401-7.597-7.597-7.597h-62.481
	c-4.195,0-7.597,3.401-7.597,7.597c0,4.195,3.401,7.597,7.597,7.597h2.532v11.348c0,4.195,3.401,7.597,7.597,7.597
	c4.195,0,7.597-3.401,7.597-7.597V270.36h11.113v11.348c0,4.195,3.401,7.597,7.597,7.597c4.195,0,7.597-3.401,7.597-7.597V270.36
	h10.851v15.969c0,9.694-7.887,17.58-17.58,17.58h-37.304c-4.195,0-7.597,3.401-7.597,7.597V338.2
	c0,20.885,16.992,37.877,37.878,37.877h2.535c4.195,0,7.597-3.401,7.597-7.597s-3.401-7.597-7.597-7.597H219.9
	c-12.507,0-22.684-10.176-22.684-22.683v-19.098L226.923,319.103L226.923,319.103z"/>
<path d="M364.664,210.721v-9.116c0-3.351,2.726-6.076,6.077-6.076c4.195,0,7.597-3.401,7.597-7.597c0-4.195-3.401-7.597-7.597-7.597
	c-11.729,0-21.271,9.542-21.271,21.27v9.116c0,4.195,3.401,7.597,7.597,7.597S364.664,214.916,364.664,210.721z"/>
<path d="M127.737,62.032c0-6.982,5.679-12.661,12.661-12.661c4.195,0,7.597-3.401,7.597-7.597s-3.401-7.597-7.597-7.597
	c-7.975,0-15.175,3.367-20.258,8.756c-5.083-5.389-12.284-8.756-20.258-8.756c-4.195,0-7.597,3.401-7.597,7.597
	s3.401,7.597,7.597,7.597c6.982,0,12.661,5.679,12.661,12.661c0,4.195,3.401,7.597,7.597,7.597
	C124.336,69.629,127.737,66.228,127.737,62.032z"/>
<path d="M80.662,80.771c-7.975,0-15.175,3.367-20.258,8.756c-5.083-5.389-12.284-8.756-20.258-8.756
	c-4.195,0-7.597,3.401-7.597,7.597c0,4.195,3.401,7.597,7.597,7.597c6.982,0,12.661,5.679,12.661,12.661
	c0,4.195,3.401,7.597,7.597,7.597S68,112.821,68,108.626c0-6.982,5.679-12.661,12.661-12.661c4.195,0,7.597-3.401,7.597-7.597
	C88.259,84.172,84.857,80.771,80.662,80.771z"/>
<path d="M392.617,247.479c-4.195,0-7.597,3.401-7.597,7.597v7.3c0,4.195,3.401,7.597,7.597,7.597s7.597-3.401,7.597-7.597v-7.3
	C400.214,250.881,396.813,247.479,392.617,247.479z"/>
<g>
</g>
<g>
</g>
<g>
</g>
<g>
</g>
<g>
</g>
<g>
</g>
<g>
</g>
<g>
</g>
<g>
</g>
<g>
</g>
<g>
</g>
<g>
</g>
<g>
</g>
<g>
</g>
<g>
</g>
</svg>
